<?xml version="1.0" standalone="no"?>
<!DOCTYPE svg PUBLIC "-//W3C//DTD SVG 20010904//EN"
 "http://www.w3.org/TR/2001/REC-SVG-20010904/DTD/svg10.dtd">
<svg version="1.0" xmlns="http://www.w3.org/2000/svg"
 width="512.000000pt" height="512.000000pt" viewBox="0 0 512.000000 512.000000"
 preserveAspectRatio="xMidYMid meet">

<g transform="translate(0.000000,512.000000) scale(0.100000,-0.100000)"
fill="#000000" stroke="none">
<path d="M455 4608 c-66 -36 -92 -82 -101 -177 l-7 -71 -75 0 c-41 0 -93 -6
-116 -12 -54 -16 -128 -90 -144 -144 -9 -31 -12 -302 -12 -1132 0 -1023 1
-1091 18 -1111 22 -28 80 -37 107 -18 20 15 20 30 25 1115 6 1277 -9 1142 122
1142 l78 0 0 -1370 0 -1370 -100 0 -100 0 0 119 c0 117 -1 120 -26 140 -32 25
-69 20 -102 -16 l-22 -24 0 -382 c0 -238 4 -396 11 -420 13 -49 73 -115 124
-138 38 -18 99 -19 1193 -19 l1152 0 0 -37 c2 -124 43 -183 129 -183 40 0 57
7 104 40 30 22 58 40 61 40 3 0 31 -18 62 -40 64 -44 112 -52 164 -25 42 22
60 63 60 140 l0 65 943 0 c890 0 944 1 982 19 51 23 111 89 124 138 17 58 15
3272 -1 3327 -16 54 -90 128 -144 144 -23 6 -75 12 -116 12 l-75 0 -7 71 c-9
95 -36 144 -103 178 -16 8 -288 11 -975 11 l-953 0 -55 -26 c-30 -14 -70 -39
-87 -57 l-33 -31 -32 31 c-18 18 -58 43 -88 57 l-55 26 -481 0 c-453 0 -482
-1 -497 -18 -24 -27 -22 -85 4 -108 20 -18 47 -19 494 -24 461 -5 474 -6 502
-26 15 -11 38 -36 51 -54 l22 -33 0 -1569 0 -1568 -982 2 -983 3 -3 1622 -2
1622 314 3 c292 3 315 4 335 22 27 25 29 86 3 109 -17 15 -56 17 -353 17 -225
-1 -341 -4 -354 -12z m4157 -692 c3 -529 4 -555 22 -575 11 -12 27 -21 38 -21
16 0 18 -10 18 -105 0 -95 -2 -105 -18 -105 -11 0 -27 -9 -38 -21 -18 -20 -19
-52 -22 -937 -2 -713 -5 -918 -15 -924 -6 -4 -450 -8 -984 -8 l-973 0 0 1569
0 1568 23 34 c12 18 38 44 56 56 l34 23 928 0 929 0 2 -554z m-1702 -3041 c0
-107 -2 -195 -5 -195 -3 0 -24 14 -47 30 -52 38 -110 41 -159 7 -19 -13 -40
-26 -46 -31 -10 -6 -13 35 -13 188 l0 196 135 0 135 0 0 -195z"/>
<path d="M3013 3898 c-48 -23 -51 -103 -4 -127 13 -8 215 -11 616 -11 401 0
603 3 616 11 48 25 44 105 -7 128 -34 15 -1189 14 -1221 -1z"/>
<path d="M3024 3410 c-26 -10 -54 -48 -54 -71 0 -9 9 -28 21 -43 l20 -26 614
0 614 0 20 26 c27 35 26 57 -3 91 l-24 28 -594 2 c-326 1 -603 -2 -614 -7z"/>
<path d="M2991 2894 c-27 -35 -26 -57 3 -91 l24 -28 607 0 607 0 24 28 c29 34
30 56 3 91 l-20 26 -614 0 -614 0 -20 -26z"/>
<path d="M3007 2419 c-46 -27 -41 -105 9 -128 17 -7 114 -11 288 -11 251 0
265 1 290 21 33 26 36 79 6 109 -19 19 -33 20 -297 20 -176 0 -285 -4 -296
-11z"/>
<path d="M3809 2401 l-29 -29 0 -251 c0 -158 4 -259 11 -274 23 -50 53 -57
236 -57 261 0 256 -6 251 348 l-3 234 -33 29 -32 29 -186 0 -186 0 -29 -29z
m321 -291 l0 -170 -100 0 -100 0 0 170 0 170 100 0 100 0 0 -170z"/>
<path d="M2999 1921 c-17 -13 -23 -29 -23 -56 0 -27 6 -43 23 -56 21 -18 44
-19 300 -19 295 1 301 2 320 51 11 30 -8 83 -34 93 -9 3 -140 6 -290 6 -252 0
-275 -1 -296 -19z"/>
<path d="M883 3898 c-48 -23 -51 -103 -4 -127 11 -6 63 -11 115 -11 l96 0 0
-225 c0 -212 1 -226 20 -245 30 -30 83 -27 109 6 20 25 21 39 21 245 l0 219
100 0 c87 0 103 3 120 20 30 30 27 83 -6 109 -26 20 -38 21 -288 20 -161 0
-269 -4 -283 -11z"/>
<path d="M1676 3889 c-33 -26 -36 -79 -6 -109 19 -19 33 -20 221 -20 122 0
208 4 220 11 48 25 44 105 -7 128 -16 7 -95 11 -213 11 -175 0 -190 -1 -215
-21z"/>
<path d="M1500 3413 c-33 -13 -50 -37 -50 -73 0 -70 -2 -70 348 -70 l311 0 20
26 c27 35 26 57 -3 91 l-24 28 -294 2 c-161 1 -300 -1 -308 -4z"/>
<path d="M861 2894 c-27 -35 -26 -57 3 -91 l24 -28 607 0 607 0 24 28 c29 34
30 56 3 91 l-20 26 -614 0 -614 0 -20 -26z"/>
<path d="M877 2419 c-46 -27 -41 -105 9 -128 35 -16 1183 -16 1218 0 51 23 55
103 7 128 -27 15 -1209 15 -1234 0z"/>
<path d="M873 1925 c-11 -8 -24 -26 -27 -40 -7 -29 15 -79 39 -89 22 -8 1198
-8 1220 0 24 10 46 60 39 89 -14 56 3 55 -649 55 -513 0 -604 -2 -622 -15z"/>
</g>
</svg>
