<?xml version="1.0" encoding="UTF-8"?>
<svg version="1.1" xmlns="http://www.w3.org/2000/svg" width="593" height="175">
<path d="M0 0 C2.16636268 3.24954402 2.31445659 4.62439088 1.75 8.40625 C-0.23224199 15.26150354 -4.0561102 22.0841653 -8 28 C4.87 28.495 4.87 28.495 18 29 C18 29.99 18 30.98 18 32 C17.14535156 32.12117188 16.29070312 32.24234375 15.41015625 32.3671875 C14.30542969 32.53476562 13.20070313 32.70234375 12.0625 32.875 C10.96035156 33.03742187 9.85820312 33.19984375 8.72265625 33.3671875 C7.82417969 33.57601562 6.92570312 33.78484375 6 34 C4.4112853 37.17742941 4.84377297 40.60887745 4.83886719 44.09887695 C4.83390228 44.93660141 4.82893738 45.77432587 4.82382202 46.63743591 C4.80916953 49.42105932 4.80238939 52.20462553 4.796875 54.98828125 C4.79112122 56.92726136 4.78536352 58.86624147 4.77960205 60.80522156 C4.76907999 64.88162501 4.76324682 68.9580087 4.75976562 73.03442383 C4.75431185 78.22792918 4.73035631 83.42116824 4.70179367 88.61459064 C4.68304547 92.62721989 4.67795501 96.63978696 4.67642975 100.65245628 C4.6734245 102.56478501 4.66546896 104.47711321 4.65224457 106.38939857 C4.09291075 126.61164168 4.09291075 126.61164168 13 144 C17.97667663 147.58783664 23.07469647 147.70562342 29 147 C36.64566238 144.25910216 40.30307333 138.93378297 43.88671875 131.98828125 C47.76590212 121.57573642 47.27738217 110.87796705 47.23046875 99.9375 C47.2292749 98.09570345 47.22882422 96.25390629 47.2290802 94.41210938 C47.22752382 90.57271455 47.21929426 86.73341408 47.20581055 82.89404297 C47.18872579 77.96657308 47.1849994 73.03920565 47.18575573 68.11170959 C47.18548443 64.31828835 47.18001127 60.52488961 47.17275429 56.73147583 C47.16956892 54.91334198 47.16760052 53.09520558 47.16686058 51.27706909 C47.16470105 48.74716799 47.15596806 46.21737747 47.14526367 43.6875 C47.14571686 42.9342897 47.14617004 42.18107941 47.14663696 41.40504456 C47.18978886 37.57573382 47.18978886 37.57573382 46 34 C43.19019327 33.30772968 43.19019327 33.30772968 39.9375 32.875 C38.83277344 32.70742188 37.72804688 32.53984375 36.58984375 32.3671875 C35.73519531 32.24601562 34.88054687 32.12484375 34 32 C34 31.01 34 30.02 34 29 C43.18034698 28.93013507 52.36060082 28.87700504 61.54115677 28.84456348 C65.80520344 28.82898413 70.06906667 28.80788932 74.33300781 28.77368164 C78.45681278 28.74080959 82.58044259 28.72308904 86.70436859 28.71536827 C88.26865135 28.70987425 89.83292578 28.69914756 91.39713287 28.68280983 C103.02339823 28.56633343 115.1375602 28.46811277 124.44140625 36.41796875 C128.5217729 40.5596943 129.19047233 44.22561431 129.375 49.875 C129.10620491 57.93885275 127.7674127 62.64632304 121.875 68.3125 C118.86426762 71.0309818 116.14298037 72.38533631 112.32861328 73.61010742 C111.51804474 73.87264816 110.7074762 74.1351889 109.87234497 74.40568542 C108.94553421 74.69987114 108.94553421 74.69987114 108 75 C109.1340182 77.93883931 110.26813494 80.8776405 111.40234375 83.81640625 C111.75570297 84.73200317 112.10906219 85.6476001 112.47312927 86.59094238 C114.41132128 91.61207131 116.35104025 96.63260339 118.29345703 101.65209961 C118.68017578 102.65148056 119.06689453 103.65086151 119.46533203 104.68052673 C120.24003083 106.6825465 121.01477031 108.68455053 121.78955078 110.6865387 C123.88259658 116.09837364 125.96322924 121.51456769 128.02734375 126.9375 C128.64138062 128.53936157 128.64138062 128.53936157 129.26782227 130.17358398 C129.98430238 132.04306782 130.69483087 133.91484812 131.39819336 135.78930664 C131.70764893 136.59231201 132.01710449 137.39531738 132.3359375 138.22265625 C132.58907715 138.89047119 132.8422168 139.55828613 133.10302734 140.24633789 C134.15485653 142.30275843 135.19300025 143.55937259 137 145 C141.6175193 145.61636421 141.6175193 145.61636421 145.64135933 143.71695042 C147.13609923 141.82800777 147.6594817 140.48101399 148.23825073 138.15379333 C148.43708862 137.37633759 148.63592651 136.59888184 148.84078979 135.79786682 C149.04656647 134.9486113 149.25234314 134.09935577 149.46435547 133.22436523 C149.69084778 132.32625122 149.91734009 131.42813721 150.1506958 130.50280762 C150.89941448 127.52378175 151.63320428 124.54128119 152.3671875 121.55859375 C152.88802167 119.47583251 153.40985721 117.39332146 153.93264771 115.31105042 C155.31093578 109.81122271 156.67694768 104.30842065 158.04003906 98.80480957 C159.9483379 91.10884122 161.87274624 83.41688426 163.79592896 75.72462463 C164.81887366 71.63306448 165.83707071 67.54037174 166.85128784 63.44664001 C169.71730595 51.90961561 172.74739537 40.43420572 176 29 C177.32 29.33 178.64 29.66 180 30 C180.32937561 31.25121643 180.65875122 32.50243286 180.99810791 33.79156494 C184.11260454 45.62068791 187.23123232 57.44871507 190.35383987 69.27569962 C191.95881648 75.35513487 193.56236841 81.43493826 195.16259766 87.515625 C196.70884201 93.39095776 198.25891588 99.26526821 199.81157684 105.13890839 C200.40135084 107.37266281 200.98977689 109.6067736 201.57678986 111.84125519 C203.34551219 118.57188063 205.14717858 125.29203608 207 132 C207.1905748 132.70408493 207.3811496 133.40816986 207.57749939 134.1335907 C208.05602491 135.87636573 208.56679059 137.61020773 209.08105469 139.34277344 C209.33747742 140.22141052 209.59390015 141.10004761 209.85809326 142.00531006 C210.8896428 144.20924505 210.8896428 144.20924505 213.38555908 145.31060791 C216.84826267 146.22367519 219.52647065 145.73478505 223 145 C224.56144172 143.43855828 224.13236958 141.92686528 224.14044189 139.75514221 C224.14615204 138.83951508 224.15186218 137.92388794 224.15774536 136.98051453 C224.15886322 135.96802139 224.15998108 134.95552826 224.16113281 133.91235352 C224.16609772 132.85228088 224.17106262 131.79220825 224.17617798 130.70001221 C224.19084134 127.17630374 224.19760809 123.65264027 224.203125 120.12890625 C224.20887245 117.69131976 224.21463023 115.25373329 224.22039795 112.81614685 C224.23091946 107.69896228 224.23675477 102.58179348 224.24023438 97.46459961 C224.24572536 90.89229469 224.26976163 84.32019631 224.29820633 77.74795628 C224.31678463 72.71151613 224.32203571 67.67512624 224.32357025 62.63865471 C224.32660756 60.21484178 224.33467203 57.79102996 224.34775543 55.36725044 C224.36471757 51.9836851 224.36295987 48.60063103 224.35644531 45.21704102 C224.3656601 44.20657211 224.37487488 43.19610321 224.3843689 42.15501404 C224.37879974 41.23656708 224.37323059 40.31812012 224.36749268 39.37184143 C224.36895924 38.57118035 224.3704258 37.77051928 224.3719368 36.94559574 C224.24919765 36.30354915 224.12645851 35.66150255 224 35 C220.55549263 32.70366176 218.06187717 32.45983515 214 32 C214 31.01 214 30.02 214 29 C234.13 29 254.26 29 275 29 C276.20735185 35.03675925 276.61643533 40.99243677 277.0625 47.125 C277.15337891 48.29804687 277.24425781 49.47109375 277.33789062 50.6796875 C277.86413838 57.80183759 278.12268225 64.85898457 278 72 C277.01 72 276.02 72 275 72 C274.89453857 71.22922119 274.78907715 70.45844238 274.68041992 69.66430664 C274.19160529 66.12908676 273.68965548 62.59584856 273.1875 59.0625 C272.9390332 57.24395508 272.9390332 57.24395508 272.68554688 55.38867188 C271.4985583 42.97888065 271.4985583 42.97888065 265 33 C262.73463618 32.53983651 262.73463618 32.53983651 260.21875 32.6015625 C259.29449219 32.59769531 258.37023437 32.59382813 257.41796875 32.58984375 C256.45503906 32.60144531 255.49210938 32.61304688 254.5 32.625 C253.53707031 32.61339844 252.57414063 32.60179687 251.58203125 32.58984375 C250.65777344 32.59371094 249.73351562 32.59757812 248.78125 32.6015625 C247.5137793 32.60663818 247.5137793 32.60663818 246.22070312 32.61181641 C243.98562166 32.86945974 243.98562166 32.86945974 242.21948242 34.04174805 C240.31466608 37.10051319 240.63286119 40.24216058 240.70703125 43.73046875 C240.71127609 44.48088943 240.71552094 45.23131012 240.71989441 46.00447083 C240.7366755 48.39918026 240.7743251 50.79304534 240.8125 53.1875 C240.82754765 54.8118368 240.84123591 56.4361868 240.85351562 58.06054688 C240.88657695 62.04068948 240.93835406 66.02020163 241 70 C243.79192205 70.05380578 246.5828141 70.09357669 249.375 70.125 C250.56609375 70.15013672 250.56609375 70.15013672 251.78125 70.17578125 C253.85492015 70.19335473 255.92883241 70.10335168 258 70 C260.20595109 68.21345939 260.20595109 68.21345939 260.22705078 65.84521484 C260.21134033 64.54124756 260.21134033 64.54124756 260.1953125 63.2109375 C260.18564453 61.79941406 260.18564453 61.79941406 260.17578125 60.359375 C260.15902344 59.37453125 260.14226563 58.3896875 260.125 57.375 C260.11146484 55.88613281 260.11146484 55.88613281 260.09765625 54.3671875 C260.07404116 51.91121866 260.04110799 49.45572832 260 47 C260.99 47 261.98 47 263 47 C264.41382629 53.62554357 265.50072766 60.21805495 266.2890625 66.9453125 C266.39721283 67.84120087 266.50536316 68.73708923 266.61679077 69.66012573 C266.95652095 72.48132575 267.290857 75.30313337 267.625 78.125 C267.8564121 80.05473055 268.08817979 81.9844185 268.3203125 83.9140625 C268.88431411 88.60889322 269.44348392 93.30427633 270 98 C268.68 97.67 267.36 97.34 266 97 C265.73445312 95.73542969 265.46890625 94.47085938 265.1953125 93.16796875 C264.83887921 91.50774 264.4820898 89.84758767 264.125 88.1875 C263.95097656 87.35412109 263.77695312 86.52074219 263.59765625 85.66210938 C263.42363281 84.85966797 263.24960937 84.05722656 263.0703125 83.23046875 C262.83465576 82.12288208 262.83465576 82.12288208 262.59423828 80.99291992 C262.0205516 78.71252193 262.0205516 78.71252193 260 76 C256.48262679 74.82754226 253.6424868 74.86733715 249.9375 74.875 C248.68839844 74.87242188 247.43929687 74.86984375 246.15234375 74.8671875 C243.09799287 74.78051724 243.09799287 74.78051724 241 76 C240.97685831 84.70116929 240.95907557 93.40232803 240.94818783 102.10352135 C240.94296301 106.14356954 240.93587261 110.18359672 240.92456055 114.22363281 C240.91371746 118.120441 240.90772013 122.01722895 240.90512276 125.91405106 C240.90327108 127.40284163 240.89965537 128.89163107 240.89426994 130.38041306 C240.88704066 132.46115285 240.88600986 134.54180832 240.88647461 136.62255859 C240.88314369 138.40126846 240.88314369 138.40126846 240.87974548 140.21591187 C240.80837511 142.9569165 240.80837511 142.9569165 242 145 C244.94981945 145.98327315 246.88979508 146.12887338 249.96484375 146.1328125 C251.41213867 146.13474609 251.41213867 146.13474609 252.88867188 146.13671875 C253.89478516 146.13285156 254.90089844 146.12898437 255.9375 146.125 C256.93974609 146.12886719 257.94199219 146.13273438 258.97460938 146.13671875 C260.42383789 146.13478516 260.42383789 146.13478516 261.90234375 146.1328125 C263.22480103 146.13112061 263.22480103 146.13112061 264.57397461 146.12939453 C267.8786472 145.9692597 267.8786472 145.9692597 271 145 C272.07606724 143.10538985 272.07606724 143.10538985 272.61328125 140.6953125 C272.85127441 139.79071289 273.08926758 138.88611328 273.33447266 137.95410156 C274.46086909 132.95432283 275.3607414 127.93206036 276.1875 122.875 C276.36474609 121.823125 276.54199219 120.77125 276.72460938 119.6875 C277.15542519 117.12589246 277.58044702 114.56347191 278 112 C278.66 112 279.32 112 280 112 C280.05558968 114.95860605 280.09440579 117.91610252 280.125 120.875 C280.14175781 121.67808594 280.15851562 122.48117188 280.17578125 123.30859375 C280.24546344 132.43696079 279.03316913 140.70147785 278 150 C246.32 150 214.64 150 182 150 C182 149.01 182 148.02 182 147 C187.445 146.01 187.445 146.01 193 145 C192.43395067 137.67174229 191.16762063 130.88086081 189.3125 123.77734375 C188.91865112 122.23730431 188.91865112 122.23730431 188.5168457 120.66615295 C187.96553817 118.51653484 187.41072273 116.36781358 186.85253906 114.2199707 C185.99484033 110.91763408 185.1489296 107.61244028 184.3046875 104.30664062 C183.76630693 102.21336616 183.22726836 100.12026079 182.6875 98.02734375 C182.43331299 97.03580795 182.17912598 96.04427216 181.91723633 95.02268982 C181.68029053 94.11406693 181.44334473 93.20544403 181.19921875 92.26928711 C180.88730591 91.06543617 180.88730591 91.06543617 180.5690918 89.83726501 C180.15693337 88.00152436 180.15693337 88.00152436 179 87 C176.64686445 86.92728259 174.29166332 86.91629132 171.9375 86.9375 C170.64714844 86.94652344 169.35679687 86.95554687 168.02734375 86.96484375 C167.02832031 86.97644531 166.02929688 86.98804687 165 87 C163.13862468 94.29322578 161.28837877 101.58920976 159.44580078 108.88720703 C158.8178212 111.36897455 158.18730753 113.85010229 157.55419922 116.33056641 C156.6440212 119.89840708 155.74301569 123.46845796 154.84375 127.0390625 C154.55939087 128.14553131 154.27503174 129.25200012 153.98205566 130.39199829 C153.72178589 131.43262421 153.46151611 132.47325012 153.19335938 133.54541016 C152.96241577 134.4558609 152.73147217 135.36631165 152.49353027 136.30435181 C151.95362798 139.25328262 151.91609021 142.00846501 152 145 C155.63 145.66 159.26 146.32 163 147 C163 147.99 163 148.98 163 150 C158.28608601 150.074557 153.57252071 150.12879273 148.8581543 150.16479492 C147.25685644 150.17981466 145.65559925 150.20023663 144.05444336 150.22631836 C141.74322429 150.26300438 139.43255244 150.27979435 137.12109375 150.29296875 C136.41351425 150.30845261 135.70593475 150.32393646 134.97691345 150.33988953 C128.90580244 150.34191205 124.17054815 149.12492244 119.77001953 144.81689453 C117.57212665 141.3190617 116.11567423 137.79178778 114.6796875 133.9296875 C114.37906906 133.1432637 114.07845062 132.3568399 113.76872253 131.54658508 C112.79515853 128.99270105 111.83480205 126.43408425 110.875 123.875 C110.2082522 122.1160453 109.5408491 120.35733887 108.87280273 118.59887695 C107.21290362 114.22159828 105.56471587 109.84002789 103.92144775 105.45648193 C103.05845602 103.15583755 102.19270058 100.85625885 101.32568359 98.55712891 C99.89799488 94.76970604 98.47822453 90.97941275 97.0625 87.1875 C96.64403809 86.06907715 96.22557617 84.9506543 95.79443359 83.79833984 C95.42012207 82.78594238 95.04581055 81.77354492 94.66015625 80.73046875 C94.17494507 79.42178833 94.17494507 79.42178833 93.67993164 78.08666992 C93 76 93 76 93 74 C90.03 74.33 87.06 74.66 84 75 C84.1074162 83.8316372 84.22003211 92.66318815 84.33933926 101.49467278 C84.39457017 105.5952165 84.44799044 109.69576735 84.49731445 113.79638672 C84.54495553 117.75161172 84.59729824 121.7067488 84.65294075 125.66186905 C84.67336547 127.17296289 84.69207836 128.68408084 84.70907402 130.19521713 C84.73311551 132.30715424 84.76317022 134.41892468 84.79467773 136.53076172 C84.81022202 137.73433319 84.8257663 138.93790466 84.84178162 140.177948 C84.81018777 142.95074633 84.81018777 142.95074633 86 145 C88.80980673 145.69227032 88.80980673 145.69227032 92.0625 146.125 C93.71958984 146.37636719 93.71958984 146.37636719 95.41015625 146.6328125 C96.26480469 146.75398437 97.11945313 146.87515625 98 147 C98 147.99 98 148.98 98 150 C84.8 150 71.6 150 58 150 C58 149.01 58 148.02 58 147 C58.63808594 146.86722656 59.27617187 146.73445312 59.93359375 146.59765625 C61.17302734 146.33275391 61.17302734 146.33275391 62.4375 146.0625 C63.26121094 145.88847656 64.08492188 145.71445313 64.93359375 145.53515625 C66.97661204 145.19247006 66.97661204 145.19247006 68 144 C68.10198212 142.58795112 68.13517966 141.17085924 68.14044189 139.75514221 C68.14615204 138.83951508 68.15186218 137.92388794 68.15774536 136.98051453 C68.15886322 135.96802139 68.15998108 134.95552826 68.16113281 133.91235352 C68.16609772 132.85228088 68.17106262 131.79220825 68.17617798 130.70001221 C68.19084134 127.17630374 68.19760809 123.65264027 68.203125 120.12890625 C68.20887245 117.69131976 68.21463023 115.25373329 68.22039795 112.81614685 C68.23091946 107.69896228 68.23675477 102.58179348 68.24023438 97.46459961 C68.24572536 90.89229469 68.26976163 84.32019631 68.29820633 77.74795628 C68.31678463 72.71151613 68.32203571 67.67512624 68.32357025 62.63865471 C68.32660756 60.21484178 68.33467203 57.79102996 68.34775543 55.36725044 C68.36471757 51.9836851 68.36295987 48.60063103 68.35644531 45.21704102 C68.3656601 44.20657211 68.37487488 43.19610321 68.3843689 42.15501404 C68.37879974 41.23656708 68.37323059 40.31812012 68.36749268 39.37184143 C68.36969252 38.17084981 68.36969252 38.17084981 68.3719368 36.94559574 C68.18782808 35.98252585 68.18782808 35.98252585 68 35 C64.76085771 32.84057181 63.75140267 32.72767022 60 32.75 C58.700625 32.74226563 58.700625 32.74226563 57.375 32.734375 C54.734205 32.84585448 54.734205 32.84585448 52 35 C51.69954509 37.68274217 51.59371236 40.13788777 51.61523438 42.82348633 C51.6098616 43.63195007 51.60448883 44.44041382 51.59895325 45.27337646 C51.58915156 47.03414835 51.58623829 48.79496867 51.58930969 50.55576515 C51.59378376 53.35314008 51.57979356 56.14988082 51.56091309 58.94718933 C51.52405164 64.90228221 51.51043592 70.8573099 51.5 76.8125 C51.48788268 83.6781482 51.46599785 90.54349045 51.41999817 97.4090023 C51.40655113 100.1457449 51.4105794 102.88208874 51.41540527 105.61885071 C51.37198584 119.88288274 50.53279605 133.93979051 40.23046875 144.87890625 C33.46864255 150.99253996 26.89859301 151.52785877 18.09375 151.31640625 C9.87420577 150.86166758 2.68632416 147.9571015 -3 142 C-12.6261876 130.66371603 -11.4640725 114.02287131 -11.51171875 100.0390625 C-11.52860256 98.15333924 -11.54675765 96.26762697 -11.56611633 94.38192749 C-11.61322095 89.46662842 -11.64328432 84.55137395 -11.66955566 79.63592529 C-11.69956285 74.60094394 -11.74602285 69.56611579 -11.79101562 64.53125 C-11.87659774 54.6875808 -11.94414133 44.84387967 -12 35 C-15.54358477 38.50891245 -18.87256254 42.1072165 -22.0625 45.9375 C-23.02438345 47.08233056 -23.98663681 48.22685041 -24.94921875 49.37109375 C-25.44599121 49.9626123 -25.94276367 50.55413086 -26.45458984 51.16357422 C-29.08241687 54.2862464 -31.72588487 57.39538091 -34.375 60.5 C-34.86234619 61.07484131 -35.34969238 61.64968262 -35.85180664 62.24194336 C-36.32094482 62.79116455 -36.79008301 63.34038574 -37.2734375 63.90625 C-37.72299805 64.43347656 -38.17255859 64.96070312 -38.63574219 65.50390625 C-40 67 -40 67 -42.9140625 69.59375 C-45.27077221 71.77966005 -45.27077221 71.77966005 -44.9921875 74.46484375 C-43.88448555 77.29515305 -42.58379571 79.8952989 -41.125 82.5625 C-32.80548959 99.1015267 -32.46979033 119.38772583 -38 137 C-42.88002076 151.31830267 -50.39195256 163.66231853 -64.0625 170.875 C-73.38553099 175.11533722 -83.86108189 177.14358935 -93.9140625 174.125 C-100.48161173 171.10908616 -105.39822617 166.95764736 -108.13671875 160.19140625 C-112.23522099 145.03992965 -106.58547808 130.2089926 -99.25244141 117.12060547 C-92.50628067 105.69815865 -84.14621106 95.52090458 -75.39746094 85.59912109 C-73.19785686 83.08210385 -71.06496139 80.51592813 -68.9375 77.9375 C-68.24527344 77.10089844 -67.55304688 76.26429687 -66.83984375 75.40234375 C-65.01946366 73.02541433 -63.48577424 70.59663348 -62 68 C-62.556875 67.731875 -63.11375 67.46375 -63.6875 67.1875 C-66 66 -66 66 -68.5 64.3125 C-70.81309265 62.80320279 -70.81309265 62.80320279 -72.89453125 63.19921875 C-81.52816771 66.48288382 -89.38724729 77.31499358 -95.75854492 83.79492188 C-99.7667389 87.85314231 -103.85976919 91.72207249 -108.20263672 95.42138672 C-110.05013887 97.04403666 -111.77902807 98.74445382 -113.5 100.5 C-116.4029285 103.441807 -119.41190868 106.19057043 -122.546875 108.8828125 C-124.42862824 110.50687341 -126.28847712 112.1474446 -128.140625 113.8046875 C-159.61401719 141.78492712 -196.56279864 166.64810922 -239 173 C-239.76183594 173.12890625 -240.52367187 173.2578125 -241.30859375 173.390625 C-261.76247737 176.32917917 -284.19447761 173.31585516 -301.5 161.5 C-303.01108866 160.34773173 -304.51193738 159.18185479 -306 158 C-307.07121094 157.24203125 -307.07121094 157.24203125 -308.1640625 156.46875 C-311.74293998 153.78815651 -312.87462248 152.83585012 -313.5625 148.25 C-313 145 -313 145 -311 143 C-308.23046875 142.49609375 -308.23046875 142.49609375 -305 143 C-302.84314262 144.98383148 -301.13598819 146.81078462 -299.3125 149.0625 C-289.47132448 160.38329818 -277.20117339 166.93325099 -262 168 C-232.77265834 169.53828114 -205.29959579 156.78816562 -182 140 C-181.29375488 139.49452637 -180.58750977 138.98905273 -179.85986328 138.46826172 C-170.11293037 131.47269101 -160.63028608 124.28498279 -151.59765625 116.38720703 C-149.86972807 114.88688797 -148.12438422 113.40882764 -146.375 111.93359375 C-140.67690874 107.11837951 -135.10557176 102.29805045 -129.92236328 96.92127991 C-128.09513063 95.09507702 -126.21045192 93.41254428 -124.24609375 91.73608398 C-120.13577606 88.16502097 -116.27080957 84.39953507 -112.4375 80.53515625 C-111.76074219 79.85698349 -111.08398438 79.17881073 -110.38671875 78.48008728 C-108.25542325 76.34325695 -106.12765782 74.20295177 -104 72.0625 C-102.54320221 70.60067877 -101.08617299 69.13908813 -99.62890625 67.67773438 C-96.08326027 64.121146 -92.54077261 60.56143984 -89 57 C-91.5750251 56.34694387 -94.15060601 55.69623826 -96.7265625 55.046875 C-97.45302979 54.86237793 -98.17949707 54.67788086 -98.92797852 54.48779297 C-103.96909726 53.21962309 -108.79068514 52.19029461 -114 52 C-115.29035156 51.9484375 -116.58070313 51.896875 -117.91015625 51.84375 C-143.81324301 51.1547925 -169.52251744 57.93886796 -189.27734375 75.30078125 C-201.90593298 87.82065953 -208.13101998 102.47300332 -209.4375 120.125 C-210 124 -210 124 -211.75 126.625 C-214 128 -214 128 -216.625 128 C-219 127 -219 127 -220.15625 125.25 C-223.0885144 117.43062827 -219.05446311 107.27074655 -216 100 C-211.35516517 90.13945678 -204.64416108 82.60109538 -197 75 C-196.3090625 74.3090625 -195.618125 73.618125 -194.90625 72.90625 C-172.84937995 52.34476097 -143.1346543 47.17413316 -114.13769531 47.84619141 C-108.30689835 48.13201479 -102.65034165 49.09087706 -96.9375 50.24609375 C-95.62581643 50.50162299 -94.31327199 50.75276394 -93 51 C-92.23139648 51.14864502 -91.46279297 51.29729004 -90.67089844 51.45043945 C-85.84964552 52.24935954 -85.84964552 52.24935954 -81.390625 50.55078125 C-80.68421875 49.81214844 -79.9778125 49.07351562 -79.25 48.3125 C-78.4146875 47.48105469 -77.579375 46.64960937 -76.71875 45.79296875 C-75.8215625 44.87128906 -74.924375 43.94960938 -74 43 C-71.94117164 41.01499147 -69.84924936 39.0671284 -67.75 37.125 C-66.93366089 36.36606445 -66.93366089 36.36606445 -66.10083008 35.59179688 C-60.54873974 30.48397088 -54.67323364 25.84179489 -48.67138672 21.27734375 C-47.08360526 20.06389464 -45.5120004 18.8293643 -43.94140625 17.59375 C-36.66693724 11.95193074 -29.13746779 7.26391301 -21 3 C-20.27167969 2.61585937 -19.54335938 2.23171875 -18.79296875 1.8359375 C-13.00173238 -0.77316689 -6.21605901 -0.89807085 0 0 Z M-37 26 C-38.16218108 27.17636975 -39.32365367 28.3534399 -40.484375 29.53125 C-42.85425337 31.915465 -45.29390106 34.1573119 -47.84375 36.34765625 C-52.62987552 40.47892338 -57.0549611 44.9454045 -61.5 49.4375 C-62.73363281 50.67790039 -62.73363281 50.67790039 -63.9921875 51.94335938 C-65.99712113 53.95994959 -67.99966253 55.97885236 -70 58 C-67.88917243 60.15247152 -65.78695896 61.96004752 -63.3125 63.6875 C-62.68988281 64.12449219 -62.06726563 64.56148437 -61.42578125 65.01171875 C-60.72001953 65.50091797 -60.72001953 65.50091797 -60 66 C-55.74428596 64.39522 -53.14089056 61.17850125 -50.1875 57.875 C-49.65125 57.28388428 -49.115 56.69276855 -48.5625 56.08374023 C-47.03470212 54.39525538 -45.51554943 52.69947791 -44 51 C-43.36707031 50.29230469 -42.73414063 49.58460937 -42.08203125 48.85546875 C-40.37174458 46.91714386 -38.68344509 44.96170047 -37 43 C-36.57783203 42.50951172 -36.15566406 42.01902344 -35.72070312 41.51367188 C-32.65762913 37.95479166 -29.60404867 34.38794484 -26.55517578 30.81689453 C-25.05103767 29.05962674 -23.53992213 27.30859713 -22.02734375 25.55859375 C-12.15540864 15.72817751 -12.15540864 15.72817751 -7 4 C-18.13991263 4 -29.65212211 18.75193654 -37 26 Z M84 35 C83.63150072 37.77379461 83.50932157 40.14530289 83.57421875 42.9140625 C83.57750687 43.68430756 83.58079498 44.45455261 83.58418274 45.24813843 C83.5945972 46.87384507 83.61453663 48.49951466 83.64331055 50.125 C83.68745761 52.62260178 83.70475445 55.11924357 83.71679688 57.6171875 C83.73021775 59.19532647 83.74513985 60.77345354 83.76171875 62.3515625 C83.76910568 63.10257233 83.77649261 63.85358215 83.78410339 64.62734985 C83.53986177 68.10620182 83.53986177 68.10620182 85 71 C92.90319008 71.65413106 100.51979323 72.09943632 107 67 C111.16617283 63.09086612 113.66773941 58.83580552 114.3359375 53.1328125 C114.42201985 46.50447167 114.24499319 42.224607 110 37 C104.83800804 33.09556988 99.85332362 31.85472511 93.5 31.75 C92.5615625 31.72421875 91.623125 31.6984375 90.65625 31.671875 C87.37940777 32.07666139 86.26905538 32.59249681 84 35 Z M172 58 C170.22844562 63.06158396 168.63005194 68.12935563 167.25 73.3125 C166.98703125 74.29863281 166.7240625 75.28476563 166.453125 76.30078125 C166.00533123 78.9682424 166.11357174 80.47847097 167 83 C168.64574566 83.02688151 170.29161413 83.04634123 171.9375 83.0625 C173.31228516 83.07990234 173.31228516 83.07990234 174.71484375 83.09765625 C176.96593327 83.25949049 176.96593327 83.25949049 178 82 C177.57097164 73.70545165 175.25153643 65.9484472 173 58 C172.67 58 172.34 58 172 58 Z M-51 78 C-55.97916232 82.69097929 -60.34373215 87.73236987 -64.62109375 93.06640625 C-66.18589572 94.99607173 -67.78184534 96.90095955 -69.41015625 98.77734375 C-82.08249311 113.41780899 -98.18004045 134.25331399 -96.875 154.6875 C-96.07567984 160.00062813 -93.93805655 163.92351084 -90.25 167.875 C-83.81037628 171.09481186 -77.70730007 170.00611198 -71.0234375 168.12890625 C-59.41162894 163.79323096 -51.98119048 154.49852638 -46.6875 143.625 C-38.87296959 125.61760383 -36.914243 104.44088507 -44.20703125 85.9375 C-45.89258436 82.34517186 -45.89258436 82.34517186 -48 79 C-48.99 78.67 -49.98 78.34 -51 78 Z " fill="#FFFFFF" transform="translate(313,0)"/>
</svg>
