<svg width="593" height="175" viewBox="0 0 593 175" fill="none" xmlns="http://www.w3.org/2000/svg">
<path d="M313 -1.43051e-06C315.166 3.24954 315.314 4.62439 314.75 8.40625C312.768 15.2615 308.944 22.0842 305 28C317.87 28.495 317.87 28.495 331 29C331 29.99 331 30.98 331 32C330.145 32.1212 329.291 32.2423 328.41 32.3672C327.305 32.5348 326.201 32.7023 325.062 32.875C323.96 33.0374 322.858 33.1998 321.723 33.3672C320.824 33.576 319.926 33.7848 319 34C317.411 37.1774 317.844 40.6089 317.839 44.0989C317.834 44.9366 317.829 45.7743 317.824 46.6374C317.809 49.4211 317.802 52.2046 317.797 54.9883C317.791 56.9273 317.785 58.8662 317.78 60.8052C317.769 64.8816 317.763 68.958 317.76 73.0344C317.754 78.2279 317.73 83.4212 317.702 88.6146C317.683 92.6272 317.678 96.6398 317.676 100.652C317.673 102.565 317.665 104.477 317.652 106.389C317.093 126.612 317.093 126.612 326 144C330.977 147.588 336.075 147.706 342 147C349.646 144.259 353.303 138.934 356.887 131.988C360.766 121.576 360.277 110.878 360.23 99.9375C360.229 98.0957 360.229 96.2539 360.229 94.4121C360.228 90.5727 360.219 86.7334 360.206 82.894C360.189 77.9666 360.185 73.0392 360.186 68.1117C360.185 64.3183 360.18 60.5249 360.173 56.7315C360.17 54.9133 360.168 53.0952 360.167 51.2771C360.165 48.7472 360.156 46.2174 360.145 43.6875C360.146 42.9343 360.146 42.1811 360.147 41.405C360.19 37.5757 360.19 37.5757 359 34C356.19 33.3077 356.19 33.3077 352.938 32.875C351.833 32.7074 350.728 32.5398 349.59 32.3672C348.735 32.246 347.881 32.1248 347 32C347 31.01 347 30.02 347 29C356.18 28.9301 365.361 28.877 374.541 28.8446C378.805 28.829 383.069 28.8079 387.333 28.7737C391.457 28.7408 395.58 28.7231 399.704 28.7154C401.269 28.7099 402.833 28.6991 404.397 28.6828C416.023 28.5663 428.138 28.4681 437.441 36.418C441.522 40.5597 442.19 44.2256 442.375 49.875C442.106 57.9389 440.767 62.6463 434.875 68.3125C431.864 71.031 429.143 72.3853 425.329 73.6101C424.518 73.8726 423.707 74.1352 422.872 74.4057C421.946 74.6999 421.946 74.6999 421 75C422.134 77.9388 423.268 80.8776 424.402 83.8164C424.756 84.732 425.109 85.6476 425.473 86.5909C427.411 91.6121 429.351 96.6326 431.293 101.652C431.68 102.651 432.067 103.651 432.465 104.681C433.24 106.683 434.015 108.685 434.79 110.687C436.883 116.098 438.963 121.515 441.027 126.938C441.641 128.539 441.641 128.539 442.268 130.174C442.984 132.043 443.695 133.915 444.398 135.789C444.708 136.592 445.017 137.395 445.336 138.223C445.589 138.89 445.842 139.558 446.103 140.246C447.155 142.303 448.193 143.559 450 145C454.618 145.616 454.618 145.616 458.641 143.717C460.136 141.828 460.659 140.481 461.238 138.154C461.437 137.376 461.636 136.599 461.841 135.798C462.047 134.949 462.252 134.099 462.464 133.224C462.691 132.326 462.917 131.428 463.151 130.503C463.899 127.524 464.633 124.541 465.367 121.559C465.888 119.476 466.41 117.393 466.933 115.311C468.311 109.811 469.677 104.308 471.04 98.8048C472.948 91.1088 474.873 83.4169 476.796 75.7246C477.819 71.6331 478.837 67.5404 479.851 63.4466C482.717 51.9096 485.747 40.4342 489 29C490.32 29.33 491.64 29.66 493 30C493.329 31.2512 493.659 32.5024 493.998 33.7916C497.113 45.6207 500.231 57.4487 503.354 69.2757C504.959 75.3551 506.562 81.4349 508.163 87.5156C509.709 93.391 511.259 99.2653 512.812 105.139C513.401 107.373 513.99 109.607 514.577 111.841C516.346 118.572 518.147 125.292 520 132C520.191 132.704 520.381 133.408 520.578 134.134C521.056 135.876 521.567 137.61 522.081 139.343C522.337 140.221 522.594 141.1 522.858 142.005C523.89 144.209 523.89 144.209 526.386 145.311C529.848 146.224 532.526 145.735 536 145C537.561 143.439 537.132 141.927 537.14 139.755C537.146 138.84 537.152 137.924 537.158 136.981C537.159 135.968 537.16 134.956 537.161 133.912C537.166 132.852 537.171 131.792 537.176 130.7C537.191 127.176 537.198 123.653 537.203 120.129C537.209 117.691 537.215 115.254 537.22 112.816C537.231 107.699 537.237 102.582 537.24 97.4646C537.246 90.8923 537.27 84.3202 537.298 77.748C537.317 72.7115 537.322 67.6751 537.324 62.6387C537.327 60.2148 537.335 57.791 537.348 55.3672C537.365 51.9837 537.363 48.6006 537.356 45.217C537.366 44.2066 537.375 43.1961 537.384 42.155C537.379 41.2366 537.373 40.3181 537.367 39.3718C537.369 38.5712 537.37 37.7705 537.372 36.9456C537.249 36.3035 537.126 35.6615 537 35C533.555 32.7037 531.062 32.4598 527 32C527 31.01 527 30.02 527 29C547.13 29 567.26 29 588 29C589.207 35.0368 589.616 40.9924 590.062 47.125C590.153 48.298 590.244 49.4711 590.338 50.6797C590.864 57.8018 591.123 64.859 591 72C590.01 72 589.02 72 588 72C587.895 71.2292 587.789 70.4584 587.68 69.6643C587.192 66.1291 586.69 62.5958 586.188 59.0625C585.939 57.244 585.939 57.244 585.686 55.3887C584.499 42.9789 584.499 42.9789 578 33C575.735 32.5398 575.735 32.5398 573.219 32.6016C572.294 32.5977 571.37 32.5938 570.418 32.5898C569.455 32.6014 568.492 32.613 567.5 32.625C566.537 32.6134 565.574 32.6018 564.582 32.5898C563.658 32.5937 562.734 32.5976 561.781 32.6016C560.514 32.6066 560.514 32.6066 559.221 32.6118C556.986 32.8695 556.986 32.8695 555.219 34.0417C553.315 37.1005 553.633 40.2422 553.707 43.7305C553.711 44.4809 553.716 45.2313 553.72 46.0045C553.737 48.3992 553.774 50.793 553.812 53.1875C553.828 54.8118 553.841 56.4362 553.854 58.0605C553.887 62.0407 553.938 66.0202 554 70C556.792 70.0538 559.583 70.0936 562.375 70.125C563.566 70.1501 563.566 70.1501 564.781 70.1758C566.855 70.1934 568.929 70.1034 571 70C573.206 68.2135 573.206 68.2135 573.227 65.8452C573.211 64.5412 573.211 64.5412 573.195 63.2109C573.186 61.7994 573.186 61.7994 573.176 60.3594C573.159 59.3745 573.142 58.3897 573.125 57.375C573.111 55.8861 573.111 55.8861 573.098 54.3672C573.074 51.9112 573.041 49.4557 573 47C573.99 47 574.98 47 576 47C577.414 53.6255 578.501 60.2181 579.289 66.9453C579.397 67.8412 579.505 68.7371 579.617 69.6601C579.957 72.4813 580.291 75.3031 580.625 78.125C580.856 80.0547 581.088 81.9844 581.32 83.9141C581.884 88.6089 582.443 93.3043 583 98C581.68 97.67 580.36 97.34 579 97C578.734 95.7354 578.469 94.4709 578.195 93.168C577.839 91.5077 577.482 89.8476 577.125 88.1875C576.951 87.3541 576.777 86.5207 576.598 85.6621C576.424 84.8597 576.25 84.0572 576.07 83.2305C575.835 82.1229 575.835 82.1229 575.594 80.9929C575.021 78.7125 575.021 78.7125 573 76C569.483 74.8275 566.642 74.8673 562.938 74.875C561.688 74.8724 560.439 74.8698 559.152 74.8672C556.098 74.7805 556.098 74.7805 554 76C553.977 84.7012 553.959 93.4023 553.948 102.104C553.943 106.144 553.936 110.184 553.925 114.224C553.914 118.12 553.908 122.017 553.905 125.914C553.903 127.403 553.9 128.892 553.894 130.38C553.887 132.461 553.886 134.542 553.886 136.623C553.883 138.401 553.883 138.401 553.88 140.216C553.808 142.957 553.808 142.957 555 145C557.95 145.983 559.89 146.129 562.965 146.133C564.412 146.135 564.412 146.135 565.889 146.137C566.895 146.133 567.901 146.129 568.938 146.125C569.94 146.129 570.942 146.133 571.975 146.137C573.424 146.135 573.424 146.135 574.902 146.133C576.225 146.131 576.225 146.131 577.574 146.129C580.879 145.969 580.879 145.969 584 145C585.076 143.105 585.076 143.105 585.613 140.695C585.851 139.791 586.089 138.886 586.334 137.954C587.461 132.954 588.361 127.932 589.188 122.875C589.365 121.823 589.542 120.771 589.725 119.688C590.155 117.126 590.58 114.563 591 112C591.66 112 592.32 112 593 112C593.056 114.959 593.094 117.916 593.125 120.875C593.142 121.678 593.159 122.481 593.176 123.309C593.245 132.437 592.033 140.701 591 150C559.32 150 527.64 150 495 150C495 149.01 495 148.02 495 147C500.445 146.01 500.445 146.01 506 145C505.434 137.672 504.168 130.881 502.312 123.777C501.919 122.237 501.919 122.237 501.517 120.666C500.966 118.517 500.411 116.368 499.853 114.22C498.995 110.918 498.149 107.612 497.305 104.307C496.766 102.213 496.227 100.12 495.688 98.0273C495.433 97.0358 495.179 96.0443 494.917 95.0227C494.68 94.1141 494.443 93.2054 494.199 92.2693C493.887 91.0654 493.887 91.0654 493.569 89.8373C493.157 88.0015 493.157 88.0015 492 87C489.647 86.9273 487.292 86.9163 484.938 86.9375C483.647 86.9465 482.357 86.9555 481.027 86.9648C480.028 86.9764 479.029 86.988 478 87C476.139 94.2932 474.288 101.589 472.446 108.887C471.818 111.369 471.187 113.85 470.554 116.331C469.644 119.898 468.743 123.468 467.844 127.039C467.559 128.146 467.275 129.252 466.982 130.392C466.722 131.433 466.462 132.473 466.193 133.545C465.962 134.456 465.731 135.366 465.494 136.304C464.954 139.253 464.916 142.008 465 145C468.63 145.66 472.26 146.32 476 147C476 147.99 476 148.98 476 150C471.286 150.075 466.573 150.129 461.858 150.165C460.257 150.18 458.656 150.2 457.054 150.226C454.743 150.263 452.433 150.28 450.121 150.293C449.414 150.308 448.706 150.324 447.977 150.34C441.906 150.342 437.171 149.125 432.77 144.817C430.572 141.319 429.116 137.792 427.68 133.93C427.379 133.143 427.078 132.357 426.769 131.547C425.795 128.993 424.835 126.434 423.875 123.875C423.208 122.116 422.541 120.357 421.873 118.599C420.213 114.222 418.565 109.84 416.921 105.456C416.058 103.156 415.193 100.856 414.326 98.5571C412.898 94.7697 411.478 90.9794 410.062 87.1875C409.644 86.0691 409.226 84.9507 408.794 83.7983C408.42 82.7859 408.046 81.7735 407.66 80.7305C407.175 79.4218 407.175 79.4218 406.68 78.0867C406 76 406 76 406 74C403.03 74.33 400.06 74.66 397 75C397.107 83.8316 397.22 92.6632 397.339 101.495C397.395 105.595 397.448 109.696 397.497 113.796C397.545 117.752 397.597 121.707 397.653 125.662C397.673 127.173 397.692 128.684 397.709 130.195C397.733 132.307 397.763 134.419 397.795 136.531C397.81 137.734 397.826 138.938 397.842 140.178C397.81 142.951 397.81 142.951 399 145C401.81 145.692 401.81 145.692 405.062 146.125C406.72 146.376 406.72 146.376 408.41 146.633C409.265 146.754 410.119 146.875 411 147C411 147.99 411 148.98 411 150C397.8 150 384.6 150 371 150C371 149.01 371 148.02 371 147C371.638 146.867 372.276 146.734 372.934 146.598C374.173 146.333 374.173 146.333 375.438 146.062C376.261 145.888 377.085 145.714 377.934 145.535C379.977 145.192 379.977 145.192 381 144C381.102 142.588 381.135 141.171 381.14 139.755C381.146 138.84 381.152 137.924 381.158 136.981C381.159 135.968 381.16 134.956 381.161 133.912C381.166 132.852 381.171 131.792 381.176 130.7C381.191 127.176 381.198 123.653 381.203 120.129C381.209 117.691 381.215 115.254 381.22 112.816C381.231 107.699 381.237 102.582 381.24 97.4646C381.246 90.8923 381.27 84.3202 381.298 77.748C381.317 72.7115 381.322 67.6751 381.324 62.6387C381.327 60.2148 381.335 57.791 381.348 55.3672C381.365 51.9837 381.363 48.6006 381.356 45.217C381.366 44.2066 381.375 43.1961 381.384 42.155C381.379 41.2366 381.373 40.3181 381.367 39.3718C381.37 38.1708 381.37 38.1708 381.372 36.9456C381.188 35.9825 381.188 35.9825 381 35C377.761 32.8406 376.751 32.7277 373 32.75C371.701 32.7423 371.701 32.7423 370.375 32.7344C367.734 32.8459 367.734 32.8459 365 35C364.7 37.6827 364.594 40.1379 364.615 42.8235C364.61 43.632 364.604 44.4404 364.599 45.2734C364.589 47.0341 364.586 48.795 364.589 50.5558C364.594 53.3531 364.58 56.1499 364.561 58.9472C364.524 64.9023 364.51 70.8573 364.5 76.8125C364.488 83.6781 364.466 90.5435 364.42 97.409C364.407 100.146 364.411 102.882 364.415 105.619C364.372 119.883 363.533 133.94 353.23 144.879C346.469 150.993 339.899 151.528 331.094 151.316C322.874 150.862 315.686 147.957 310 142C300.374 130.664 301.536 114.023 301.488 100.039C301.471 98.1533 301.453 96.2676 301.434 94.3819C301.387 89.4666 301.357 84.5514 301.33 79.6359C301.3 74.6009 301.254 69.5661 301.209 64.5312C301.123 54.6876 301.056 44.8439 301 35C297.456 38.5089 294.127 42.1072 290.938 45.9375C289.976 47.0823 289.013 48.2269 288.051 49.3711C287.554 49.9626 287.057 50.5541 286.545 51.1636C283.918 54.2862 281.274 57.3954 278.625 60.5C278.138 61.0748 277.65 61.6497 277.148 62.2419C276.679 62.7912 276.21 63.3404 275.727 63.9062C275.277 64.4335 274.827 64.9607 274.364 65.5039C273 67 273 67 270.086 69.5938C267.729 71.7797 267.729 71.7797 268.008 74.4648C269.116 77.2952 270.416 79.8953 271.875 82.5625C280.195 99.1015 280.53 119.388 275 137C270.12 151.318 262.608 163.662 248.938 170.875C239.614 175.115 229.139 177.144 219.086 174.125C212.518 171.109 207.602 166.958 204.863 160.191C200.765 145.04 206.415 130.209 213.748 117.121C220.494 105.698 228.854 95.5209 237.603 85.5991C239.802 83.0821 241.935 80.5159 244.062 77.9375C244.755 77.1009 245.447 76.2643 246.16 75.4023C247.981 73.0254 249.514 70.5966 251 68C250.443 67.7319 249.886 67.4638 249.312 67.1875C247 66 247 66 244.5 64.3125C242.187 62.8032 242.187 62.8032 240.105 63.1992C231.472 66.4829 223.613 77.315 217.241 83.7949C213.233 87.8531 209.14 91.7221 204.797 95.4214C202.95 97.044 201.221 98.7445 199.5 100.5C196.597 103.442 193.588 106.191 190.453 108.883C188.571 110.507 186.712 112.147 184.859 113.805C153.386 141.785 116.437 166.648 74 173C73.2382 173.129 72.4763 173.258 71.6914 173.391C51.2375 176.329 28.8055 173.316 11.5 161.5C9.98891 160.348 8.48806 159.182 7 158C5.92879 157.242 5.92879 157.242 4.83594 156.469C1.25706 153.788 0.125378 152.836 -0.5625 148.25C0 145 0 145 2 143C4.76953 142.496 4.76953 142.496 8 143C10.1569 144.984 11.864 146.811 13.6875 149.062C23.5287 160.383 35.7988 166.933 51 168C80.2273 169.538 107.7 156.788 131 140C131.706 139.495 132.412 138.989 133.14 138.468C142.887 131.473 152.37 124.285 161.402 116.387C163.13 114.887 164.876 113.409 166.625 111.934C172.323 107.118 177.894 102.298 183.078 96.9213C184.905 95.0951 186.79 93.4125 188.754 91.7361C192.864 88.165 196.729 84.3995 200.562 80.5352C201.239 79.857 201.916 79.1788 202.613 78.4801C204.745 76.3433 206.872 74.203 209 72.0625C210.457 70.6007 211.914 69.1391 213.371 67.6777C216.917 64.1211 220.459 60.5614 224 57C221.425 56.3469 218.849 55.6962 216.273 55.0469C215.547 54.8624 214.821 54.6779 214.072 54.4878C209.031 53.2196 204.209 52.1903 199 52C197.71 51.9484 196.419 51.8969 195.09 51.8438C169.187 51.1548 143.477 57.9389 123.723 75.3008C111.094 87.8207 104.869 102.473 103.562 120.125C103 124 103 124 101.25 126.625C99 128 99 128 96.375 128C94 127 94 127 92.8438 125.25C89.9115 117.431 93.9455 107.271 97 100C101.645 90.1395 108.356 82.6011 116 75C116.691 74.3091 117.382 73.6181 118.094 72.9062C140.151 52.3448 169.865 47.1741 198.862 47.8462C204.693 48.132 210.35 49.0909 216.062 50.2461C217.374 50.5016 218.687 50.7528 220 51C220.769 51.1486 221.537 51.2973 222.329 51.4504C227.15 52.2494 227.15 52.2494 231.609 50.5508C232.316 49.8121 233.022 49.0735 233.75 48.3125C234.585 47.4811 235.421 46.6496 236.281 45.793C237.178 44.8713 238.076 43.9496 239 43C241.059 41.015 243.151 39.0671 245.25 37.125C246.066 36.3661 246.066 36.3661 246.899 35.5918C252.451 30.484 258.327 25.8418 264.329 21.2773C265.916 20.0639 267.488 18.8294 269.059 17.5937C276.333 11.9519 283.863 7.26391 292 3C292.728 2.61586 293.457 2.23172 294.207 1.83594C299.998 -0.773168 306.784 -0.898072 313 -1.43051e-06ZM276 26C274.838 27.1764 273.676 28.3534 272.516 29.5312C270.146 31.9155 267.706 34.1573 265.156 36.3477C260.37 40.4789 255.945 44.9454 251.5 49.4375C250.266 50.6779 250.266 50.6779 249.008 51.9434C247.003 53.9599 245 55.9789 243 58C245.111 60.1525 247.213 61.96 249.688 63.6875C250.31 64.1245 250.933 64.5615 251.574 65.0117C252.28 65.5009 252.28 65.5009 253 66C257.256 64.3952 259.859 61.1785 262.812 57.875C263.349 57.2839 263.885 56.6928 264.438 56.0837C265.965 54.3953 267.484 52.6995 269 51C269.633 50.2923 270.266 49.5846 270.918 48.8555C272.628 46.9171 274.317 44.9617 276 43C276.422 42.5095 276.844 42.019 277.279 41.5137C280.342 37.9548 283.396 34.3879 286.445 30.8169C287.949 29.0596 289.46 27.3086 290.973 25.5586C300.845 15.7282 300.845 15.7282 306 4C294.86 4 283.348 18.7519 276 26ZM397 35C396.632 37.7738 396.509 40.1453 396.574 42.9141C396.578 43.6843 396.581 44.4546 396.584 45.2481C396.595 46.8738 396.615 48.4995 396.643 50.125C396.687 52.6226 396.705 55.1192 396.717 57.6172C396.73 59.1953 396.745 60.7735 396.762 62.3516C396.769 63.1026 396.777 63.8536 396.784 64.6273C396.54 68.1062 396.54 68.1062 398 71C405.903 71.6541 413.52 72.0994 420 67C424.166 63.0909 426.668 58.8358 427.336 53.1328C427.422 46.5045 427.245 42.2246 423 37C417.838 33.0956 412.853 31.8547 406.5 31.75C405.562 31.7242 404.623 31.6984 403.656 31.6719C400.379 32.0767 399.269 32.5925 397 35ZM485 58C483.228 63.0616 481.63 68.1294 480.25 73.3125C479.987 74.2986 479.724 75.2848 479.453 76.3008C479.005 78.9682 479.114 80.4785 480 83C481.646 83.0269 483.292 83.0463 484.938 83.0625C486.312 83.0799 486.312 83.0799 487.715 83.0977C489.966 83.2595 489.966 83.2595 491 82C490.571 73.7055 488.252 65.9484 486 58C485.67 58 485.34 58 485 58ZM262 78C257.021 82.691 252.656 87.7324 248.379 93.0664C246.814 94.9961 245.218 96.901 243.59 98.7773C230.918 113.418 214.82 134.253 216.125 154.687C216.924 160.001 219.062 163.924 222.75 167.875C229.19 171.095 235.293 170.006 241.977 168.129C253.588 163.793 261.019 154.499 266.312 143.625C274.127 125.618 276.086 104.441 268.793 85.9375C267.107 82.3452 267.107 82.3452 265 79C264.01 78.67 263.02 78.34 262 78Z" fill="#121014"/>
</svg>
